<!-- icon666.com - MILLIONS vector ICONS FREE --><svg viewBox="0 -18 423.25333 423" xmlns="http://www.w3.org/2000/svg"><path fill="#fd5e07" d="m144.367188 219.738281c-35.738282 0-65.175782-27.496093-68.277344-62.441406-9.203125-2.019531-17.1875-8.21875-21.3125-16.914063-1.613282-3.40625-.160156-7.476562 3.246094-9.09375 3.402343-1.613281 7.476562-.164062 9.09375 3.242188 2.824218 5.972656 8.921874 9.824219 15.53125 9.824219 3.765624 0 6.824218 3.054687 6.824218 6.828125 0 30.273437 24.628906 54.898437 54.894532 54.898437 18.546874 0 35.710937-9.265625 45.914062-24.792969 2.070312-3.152343 6.304688-4.027343 9.457031-1.957031 3.148438 2.070313 4.027344 6.304688 1.953125 9.453125-12.738281 19.378906-34.167968 30.953125-57.324218 30.953125zm0 0"></path><path fill="#fd5e07" d="m210.21875 113.390625h-147.445312c-3.765626 0-6.824219-3.054687-6.824219-6.824219 0-43.296875 28.019531-78.410156 69.722656-87.375 3.695313-.800781 7.324219 1.550782 8.109375 5.238282.792969 3.6875-1.550781 7.316406-5.234375 8.105468-33.046875 7.109375-55.925781 33.679688-58.667969 67.203125h140.339844c3.765625 0 6.824219 3.054688 6.824219 6.828125 0 3.769532-3.058594 6.824219-6.824219 6.824219zm0 0"></path><path fill="#fd5e07" d="m225.71875 93.277344c-3.097656 0-5.902344-2.121094-6.640625-5.261719-6.453125-27.425781-27.589844-48.539063-55.167969-55.101563-3.667968-.871093-5.933594-4.550781-5.058594-8.21875.867188-3.664062 4.542969-5.933593 8.21875-5.058593 32.636719 7.757812 57.660157 32.769531 65.300782 65.246093.867187 3.671876-1.410156 7.347657-5.082032 8.210938-.527343.125-1.058593.183594-1.570312.183594zm0 0"></path><path fill="#fd5e07" d="m163.839844 113.390625h-34.132813c-3.769531 0-6.828125-3.054687-6.828125-6.824219v-10.136718c0-3.769532 3.058594-6.824219 6.828125-6.824219s6.828125 3.054687 6.828125 6.824219v3.308593h20.476563v-2.351562c0-3.773438 3.058593-6.828125 6.828125-6.828125 3.769531 0 6.828125 3.054687 6.828125 6.828125v9.179687c0 3.769532-3.058594 6.824219-6.828125 6.824219zm0 0"></path><path  fill="#fd5e07" d="m163.839844 80.4375c-3.769532 0-6.828125-3.054688-6.828125-6.824219v-59.011719c-3.464844-.566406-6.179688-.824218-10.238281-.824218-3.65625 0-7.460938.195312-10.238282.445312v58.203125c0 3.769531-3.058594 6.824219-6.828125 6.824219s-6.828125-3.054688-6.828125-6.824219v-63.539062c0-7.449219 7.703125-8.761719 23.894532-8.761719 7.214843 0 11.351562.769531 18.210937 2.027344 3.234375.597656 5.683594 3.4375 5.683594 6.734375v64.726562c0 3.769531-3.058594 6.824219-6.828125 6.824219zm0 0"></path><path fill="#fd5e07" d="m200.101562 140.699219h-159.140624c-3.769532 0-6.828126-3.054688-6.828126-6.828125v-27.304688c0-3.773437 3.058594-6.828125 6.828126-6.828125h169.253906c3.765625 0 6.824218 3.054688 6.824218 6.828125 0 3.769532-3.058593 6.824219-6.824218 6.824219h-162.429688v13.652344h152.316406c3.769532 0 6.828126 3.054687 6.828126 6.828125 0 3.773437-3.054688 6.828125-6.828126 6.828125zm0 0"></path><path fill="#fd5e07" d="m146.773438 338.671875h-139.945313c-3.769531 0-6.828125-3.054687-6.828125-6.828125v-10.605469c0-53.820312 41.148438-100.574219 95.710938-108.746093 2.527343-.371094 5.078124.703124 6.570312 2.792968 9.472656 13.289063 26.867188 21.875 44.316406 21.875 16.488282 0 31.632813-7.960937 41.546875-21.847656 1.492188-2.089844 4.054688-3.167969 6.578125-2.777344 14.332032 2.175782 27.816406 7.085938 40.082032 14.605469 3.210937 1.972656 4.21875 6.175781 2.246093 9.386719-1.972656 3.210937-6.167969 4.226562-9.386719 2.253906-9.570312-5.867188-19.992187-9.921875-31.050781-12.066406-12.480469 15.371094-30.488281 24.101562-50.015625 24.101562-20.191406 0-40.417968-9.367187-52.769531-24.152344-45.972656 8.753907-80.175781 48.746094-80.175781 94.570313v3.78125h133.121094c3.769531 0 6.828124 3.054687 6.828124 6.824219 0 3.773437-3.058593 6.832031-6.828124 6.832031zm0 0"></path><path  fill="#fd5e07" d="m228.238281 271.136719c-.25 0-.496093-.011719-.753906-.039063-3.75-.414062-6.453125-3.777344-6.042969-7.535156l2.984375-27.234375c.410157-3.746094 3.792969-6.46875 7.53125-6.039063 3.75.410157 6.453125 3.777344 6.042969 7.53125l-2.984375 27.234376c-.382813 3.496093-3.34375 6.082031-6.777344 6.082031zm0 0"></path><path  fill="#fd5e07"  d="m146.773438 338.671875h-81.679688c-3.480469 0-6.40625-2.621094-6.785156-6.078125l-10.792969-98.175781c-.285156-2.613281.949219-5.152344 3.1875-6.546875 7.648437-4.753906 15.773437-7.386719 23.632813-9.925782l1.984374-.644531c3.460938-1.105469 7.171876.652344 8.480469 4.027344l18.992188 49.078125h78.3125l19.410156-50.679688c1.277344-3.320312 4.894531-5.113281 8.289063-4.113281 6.253906 1.828125 12.355468 3.679688 18.273437 6.328125 3.441406 1.539063 4.980469 5.582032 3.441406 9.023438-1.539062 3.445312-5.582031 4.972656-9.019531 3.445312-3.328125-1.496094-6.855469-2.734375-10.5-3.878906l-18.824219 49.144531c-1.011719 2.636719-3.546875 4.386719-6.375 4.386719h-87.683593c-2.820313 0-5.347657-1.734375-6.367188-4.359375l-18.347656-47.414063c-4.484375 1.492188-8.785156 3.058594-12.824219 5.117188l9.632813 87.613281h75.5625c3.769531 0 6.828124 3.058594 6.828124 6.828125 0 3.773438-3.058593 6.824219-6.828124 6.824219zm0 0"></path><path fill="#fd5e07" d="m281.699219 265.511719c-35.738281 0-65.175781-27.496094-68.277344-62.433594-9.128906-2.015625-17.074219-8.140625-21.21875-16.726563-1.636719-3.394531-.214844-7.472656 3.183594-9.113281 3.386719-1.628906 7.472656-.21875 9.113281 3.179688 2.851562 5.90625 8.925781 9.722656 15.480469 9.722656 3.765625 0 6.824219 3.054687 6.824219 6.824219 0 30.269531 24.628906 54.894531 54.894531 54.894531 30.269531 0 54.894531-24.625 54.894531-54.894531 0-3.769532 3.058594-6.824219 6.828125-6.824219 6.78125 0 12.945313-4 15.703125-10.191406 1.535156-3.457031 5.5625-5.015625 9.011719-3.460938 3.445312 1.53125 4.996093 5.566407 3.460937 9.007813-4.039062 9.078125-12.152344 15.53125-21.613281 17.589844-3.109375 34.9375-32.546875 62.425781-68.285156 62.425781zm0 0"></path><path fill="#fd5e07" d="m365.347656 154.351562h-165.242187c-3.765625 0-6.824219-3.054687-6.824219-6.828124 0-38.59375 30.144531-76.707032 68.628906-86.765626 3.652344-.925781 7.382813 1.230469 8.332032 4.882813.949218 3.644531-1.230469 7.378906-4.878907 8.332031-30.480469 7.964844-54.820312 36.480469-58.066406 66.726563h150.847656c-3.234375-29.769531-27.109375-58.132813-57.003906-66.441407-3.632813-1.015624-5.761719-4.773437-4.75-8.40625 1.011719-3.625 4.769531-5.734374 8.402344-4.757812 38.410156 10.675781 67.375 47.835938 67.375 86.425781.007812 3.777344-3.046875 6.832031-6.820313 6.832031zm0 0"></path><path fill="#fd5e07" d="m300.375 154.351562h-34.136719c-3.765625 0-6.824219-3.054687-6.824219-6.828124v-15.855469c0-3.769531 3.058594-6.824219 6.824219-6.824219 3.769531 0 6.828125 3.054688 6.828125 6.824219v9.03125h20.480469v-7.898438c0-3.773437 3.058594-6.828125 6.828125-6.828125 3.765625 0 6.824219 3.054688 6.824219 6.828125v14.722657c0 3.773437-3.058594 6.828124-6.824219 6.828124zm0 0"></path><path fill="#fd5e07" d="m266.238281 115.378906c-3.765625 0-6.824219-3.054687-6.824219-6.828125v-53.886719c0-7.445312 7.703126-8.757812 23.894532-8.757812 7.273437 0 11.429687.773438 18.3125 2.046875 3.230468.601563 5.578125 3.429687 5.578125 6.714844v53.65625c0 3.769531-3.058594 6.824219-6.824219 6.824219-3.769531 0-6.828125-3.054688-6.828125-6.824219v-47.945313c-3.429687-.558594-6.15625-.820312-10.238281-.820312-3.660156 0-7.46875.195312-10.242188.449218v48.546876c0 3.769531-3.058594 6.824218-6.828125 6.824218zm0 0"></path><path fill="#fd5e07" d="m389.121094 188.484375h-204.800782c-3.769531 0-6.828124-3.054687-6.828124-6.828125v-34.132812c0-3.769532 3.058593-6.824219 6.828124-6.824219h204.800782c3.765625 0 6.824218 3.054687 6.824218 6.824219v34.132812c0 3.773438-3.058593 6.828125-6.824218 6.828125zm-197.972656-13.652344h191.144531v-20.480469h-191.144531zm0 0"></path><path fill="#fd5e07" d="m416.425781 386.457031h-273.066406c-3.769531 0-6.824219-3.054687-6.824219-6.824219v-12.613281c0-53.808593 41.277344-100.554687 96.007813-108.746093 2.535156-.363282 5.078125.699218 6.570312 2.792968 9.46875 13.28125 26.984375 21.863282 44.617188 21.863282 16.605469 0 31.289062-7.75 41.34375-21.835938 1.496093-2.09375 4.050781-3.15625 6.582031-2.777344 53.074219 8.039063 91.597656 53.761719 91.597656 108.699219v12.613281c0 3.773438-3.058594 6.828125-6.828125 6.828125zm-266.238281-13.652343h259.414062v-5.785157c0-46.757812-31.75-85.886719-76.050781-94.527343-12.472656 15.367187-30.402343 24.097656-49.820312 24.097656-20.367188 0-40.703125-9.359375-53.066407-24.148438-46.148437 8.769532-80.476562 48.765625-80.476562 94.574219zm0 0"></path><path fill="#fd5e07" d="m358.15625 386.457031h-155.726562c-3.484376 0-6.40625-2.621093-6.785157-6.085937l-10.792969-98.679688c-.285156-2.605468.953126-5.152344 3.1875-6.539062 8.554688-5.3125 17.710938-8.5 25.625-11.066406 3.464844-1.113282 7.195313.667968 8.484376 4.066406l19.015624 50.039062h78.265626l19.414062-51.160156c1.269531-3.328125 4.902344-5.125 8.292969-4.132812l3.023437.867187c7.480469 2.140625 15.214844 4.351563 22.507813 8.726563 2.285156 1.367187 3.5625 3.941406 3.277343 6.597656l-11 101.285156c-.378906 3.453125-3.300781 6.082031-6.789062 6.082031zm-149.605469-13.652343h143.480469l9.839844-90.613282c-3.867188-1.828125-7.988282-3.132812-12.488282-4.441406l-18.859374 49.6875c-1.007813 2.652344-3.546876 4.40625-6.382813 4.40625h-87.691406c-2.832031 0-5.375-1.753906-6.378907-4.398438l-18.351562-48.292968c-4.230469 1.507812-8.617188 3.273437-12.8125 5.492187zm0 0"></path><path fill="#fd5e07" d="m283.308594 148.410156c-14.609375 0-26.492188-11.875-26.492188-26.484375s11.882813-26.488281 26.492188-26.488281c14.605468 0 26.488281 11.878906 26.488281 26.488281s-11.882813 26.484375-26.488281 26.484375zm0-39.320312c-7.078125 0-12.839844 5.761718-12.839844 12.835937 0 7.070313 5.761719 12.832031 12.839844 12.832031 7.074218 0 12.835937-5.761718 12.835937-12.832031 0-7.074219-5.761719-12.835937-12.835937-12.835937zm0 0"></path><path fill="#fd5e07" d="m146.773438 111.054688c-14.605469 0-26.492188-11.882813-26.492188-26.492188s11.882812-26.488281 26.492188-26.488281c14.609374 0 26.492187 11.878906 26.492187 26.488281s-11.886719 26.492188-26.492187 26.492188zm0-39.324219c-7.074219 0-12.835938 5.761719-12.835938 12.835937 0 7.078125 5.761719 12.839844 12.835938 12.839844 7.074218 0 12.835937-5.761719 12.835937-12.839844s-5.761719-12.835937-12.835937-12.835937zm0 0"></path></svg>